<svg id="Capa_1" enable-background="new 0 0 512 512" height="512" viewBox="0 0 512 512" width="512" xmlns="http://www.w3.org/2000/svg"><g><g><g><path d="m512 256c0 118.55-80.6 218.29-189.98 247.4l-5.5-1.92c-12.73-4.43-26.87-.74-35.81 9.34-8.13.78-16.37 1.18-24.71 1.18-2.82 0-5.63-.05-8.42-.13-4.62-11.53-18.8-15.7-28.93-8.53l-6.85 4.86c-80.05-13.93-147.33-65.05-183.4-134.91 7.78-12.29 1.5-28.62-12.51-32.52l-1.68-.47c-9.21-26.4-14.21-54.76-14.21-84.3 0-46.21 12.25-89.56 33.68-126.99 44.11-77.07 127.15-129.01 222.32-129.01s178.21 51.94 222.32 129.01c21.43 37.43 33.68 80.78 33.68 126.99z" fill="#fcbf10"/><path d="m512 256c0 118.55-80.6 218.29-189.98 247.4l-5.5-1.92c-12.73-4.43-26.87-.74-35.81 9.34-8.13.78-16.37 1.18-24.71 1.18-2.82 0-5.63-.05-8.42-.13-4.62-11.53-18.8-15.7-28.93-8.53l-6.85 4.86c-80.05-13.93-147.33-65.05-183.4-134.91 7.78-12.29 1.5-28.62-12.51-32.52l-1.68-.47c-9.21-26.4-14.21-54.76-14.21-84.3 0-46.21 12.25-89.56 33.68-126.99 27.77 48.5 70.94 87.05 122.86 108.96 9.59 4.05 19.48 7.53 29.63 10.39 1.41.41 2.83.8 4.25 1.17 8.63 2.28 17.44 4.13 26.41 5.5 12.77 1.96 25.85 2.98 39.17 2.98 95.16 0 178.2-51.93 222.32-129 21.43 37.43 33.68 80.78 33.68 126.99z" fill="#ff9f00"/></g></g><g><g><g><path d="m260.88 352.61c-14.02-20.72-33.97-35.96-57.69-44.1-5.02-1.72-10.17-3.1-15.39-4.1 3.74-3.76 7.23-7.8 10.42-12.05 7.53-10.02 13.28-20.97 17.14-32.56.53-1.58 1.02-3.17 1.47-4.77 2.91-10.14 4.39-20.72 4.38-31.52-.01-2.91-.9-5.55-2.42-7.72-3.16-4.49-8.95-6.88-14.75-5.19-18.05 5.21-34.2 14.55-47.5 27.37-4.41 4.25-8.51 8.88-12.26 13.88-3.2 4.24-6.1 8.73-8.67 13.36-2.41-4.72-5.17-9.27-8.23-13.62-7.2-10.25-15.85-19.11-25.66-26.37-9.83-7.26-20.82-12.93-32.72-16.79-4.26-1.38-8.57-.53-11.87 1.79l-.01.01c-3.29 2.31-5.57 6.08-5.71 10.55-.83 25.01 6.35 49.07 20.76 69.59 3.06 4.35 6.41 8.48 10.04 12.36-5.24.84-10.43 2.05-15.5 3.62-11.69 3.59-22.54 8.91-32.29 15.76-7.41 5.2-14.18 11.29-20.21 18.19 3.97 11.39 8.72 22.41 14.19 32.99 19.18 4.23 39.02 3.42 58.13-2.46 5.08-1.55 10.05-3.46 14.87-5.71-.82 5.24-1.27 10.55-1.36 15.87-.39 25.04 7.16 48.99 21.87 69.21l.01.01c4.45 6.1 12.78 7.17 18.58 3.1 1.07-.75 2.05-1.66 2.9-2.76 15.37-19.74 23.7-43.42 24.1-68.48.08-5.34-.2-10.66-.85-15.92 4.73 2.39 9.64 4.46 14.67 6.19 11.84 4.05 24.06 6.14 36.26 6.24 12.23.1 24.46-1.79 36.34-5.66 8.5-2.78 11.98-12.91 6.96-20.31zm-70.84-5.71c-6.72-2.29-13.13-5.41-19.08-9.22-7.29-4.69-16.62-4.47-23.85.61l-.09.06c-7.17 5.04-10.55 13.76-8.6 22.21 1.57 6.88 2.32 13.96 2.21 21.07-.19 11.89-2.73 23.37-7.41 33.97-4.33-10.75-6.49-22.3-6.31-34.2.12-7.09 1.09-14.16 2.9-21 2.21-8.4-.9-17.21-7.78-22.37l-.21-.17c-7-5.29-16.34-5.83-23.81-1.35-6.07 3.65-12.59 6.55-19.38 8.64-11.36 3.49-23.06 4.64-34.6 3.46 8.88-7.47 19.2-13.07 30.56-16.57 6.8-2.08 13.81-3.34 20.87-3.74 8.66-.48 16.09-6.16 18.85-14.25l.11-.3c2.89-8.29.51-17.35-6.07-23.09-5.33-4.64-10.11-9.94-14.18-15.74-6.84-9.74-11.55-20.52-13.99-31.86.01.02.03.01.04.02 9.81 6.14 18.34 14.23 25.16 23.96 4.08 5.8 7.45 12.09 10.01 18.67 3.16 8.15 10.89 13.45 19.8 13.54 8.75.14 16.58-4.92 19.98-12.9 2.76-6.51 6.34-12.68 10.6-18.37 5.79-7.7 12.66-14.3 20.4-19.62 1.81-1.25 3.66-2.42 5.56-3.52-.39 1.58-.83 3.14-1.31 4.69-1.23 3.99-2.76 7.88-4.57 11.66-2.51 5.25-5.56 10.28-9.12 15.04-4.27 5.67-9.2 10.82-14.69 15.29-6.75 5.5-9.43 14.48-6.77 22.97 2.58 8.38 9.81 14.28 18.45 15.05 7.05.61 14.03 2.1 20.77 4.4 11.25 3.86 21.39 9.81 30.02 17.55-11.57.81-23.22-.73-34.47-4.59z" fill="#c55732"/><g fill="#a63917"><path d="m218.785 215.789c1.524 2.17 2.414 4.809 2.42 7.717.011 12.519-1.979 24.713-5.844 36.296-3.865 11.584-9.614 22.542-17.141 32.559-3.188 4.254-6.684 8.286-10.416 12.046 5.215 1.002 10.364 2.378 15.388 4.105 23.714 8.134 43.663 23.379 57.69 44.098 5.022 7.4 1.54 17.533-6.959 20.305-11.883 3.879-24.112 5.767-36.34 5.662-12.203-.101-24.419-2.185-36.266-6.238-5.024-1.727-9.936-3.795-14.663-6.191l-109.52-155.929c3.3-2.318 7.604-3.173 11.864-1.785 11.907 3.857 22.892 9.521 32.724 16.784 9.807 7.259 18.459 16.117 25.659 26.367 3.059 4.355 5.815 8.902 8.231 13.621 2.572-4.632 5.466-9.117 8.664-13.356 15.059-20.059 35.727-34.314 59.761-41.252 5.801-1.686 11.597.704 14.748 5.191z"/><path d="m165.769 267.984c-4.262 5.687-7.835 11.854-10.595 18.37-3.4 7.973-11.232 13.035-19.981 12.895-8.911-.092-16.642-5.392-19.798-13.534-2.567-6.585-5.931-12.872-10.01-18.679-6.829-9.723-15.358-17.813-25.168-23.953-.01-.015-.025-.004-.035-.019 2.443 11.336 7.145 22.115 13.984 31.852 4.079 5.807 8.851 11.105 14.189 15.743 6.573 5.741 8.951 14.802 6.061 23.095l-.102.291c-2.766 8.097-10.19 13.771-18.854 14.25-7.055.4-14.069 1.67-20.865 3.749-11.365 3.493-21.684 9.099-30.566 16.563 11.538 1.181 23.239.036 34.604-3.457 6.785-2.094 13.312-4.992 19.378-8.64 7.473-4.482 16.808-3.944 23.807 1.345l.213.179c6.882 5.152 9.985 13.966 7.783 22.367-1.812 6.835-2.779 13.909-2.9 21.001-.188 11.892 1.972 23.448 6.306 34.201 4.684-10.604 7.219-22.086 7.407-33.978.111-7.107-.633-14.184-2.208-21.071-1.945-8.445 1.432-17.167 8.603-22.204l.088-.062c7.23-5.078 16.556-5.3 23.854-.615 5.945 3.818 12.359 6.933 19.072 9.226 11.251 3.858 22.907 5.394 34.471 4.586-8.63-7.735-18.768-13.688-30.018-17.546-6.738-2.297-13.719-3.788-20.764-4.402-8.64-.764-15.878-6.674-18.453-15.048-2.658-8.492.018-17.466 6.769-22.975 5.49-4.469 10.416-9.615 14.688-15.287 3.558-4.755 6.613-9.791 9.125-15.038s4.472-10.718 5.881-16.351c-10.036 5.825-18.825 13.64-25.966 23.146z"/></g></g><path d="m191.735 244.84c-1.409 5.632-3.369 11.104-5.881 16.351s-5.567 10.283-9.125 15.038c-4.272 5.672-9.198 10.818-14.688 15.287-6.752 5.509-9.427 14.483-6.769 22.975 2.575 8.374 9.814 14.284 18.453 15.048 7.045.614 14.027 2.105 20.764 4.402 11.25 3.858 21.388 9.811 30.018 17.546-11.565.808-23.22-.728-34.471-4.586-6.713-2.293-13.128-5.408-19.072-9.226-7.298-4.685-16.624-4.463-23.854.615l-.014.01-66.878-95.217c9.809 6.14 18.339 14.23 25.168 23.953 4.079 5.807 7.443 12.094 10.01 18.679 3.156 8.141 10.887 13.442 19.798 13.534 8.749.14 16.58-4.923 19.981-12.895 2.76-6.516 6.334-12.683 10.595-18.37 7.14-9.506 15.929-17.321 25.965-23.144z" fill="#7f200d"/></g><g><g><path d="m328.987 71.988c-16.459-.017-32.132 5.205-45.323 15.123-2.798 2.093-5.448 4.398-7.922 6.853-.663-3.425-1.571-6.803-2.707-10.116-2.672-7.797-6.518-14.979-11.386-21.363-4.883-6.391-10.788-11.983-17.606-16.601-2.438-1.657-5.315-1.905-7.824-1.045l-.011.004c-2.499.856-4.63 2.821-5.538 5.625-5.107 15.648-4.978 32.17.37 47.774 1.135 3.313 2.501 6.534 4.083 9.657-3.464-.433-6.967-.616-10.46-.553-8.046.128-15.876 1.503-23.293 4.045-7.786 2.669-15.117 6.627-21.77 11.799-4.645 3.612-4.533 10.665.216 14.123l.004.011c13.304 9.687 29.06 14.67 45.557 14.399 3.497-.052 6.985-.35 10.441-.886-1.472 3.16-2.731 6.433-3.765 9.779-4.834 15.754-4.444 32.273 1.146 47.745l.004.011c1.699 4.665 6.766 6.867 11.172 5.357.814-.279 1.602-.674 2.339-1.213 13.331-9.655 22.934-23.093 27.775-38.862 1.031-3.357 1.829-6.772 2.382-10.215 2.548 2.38 5.274 4.587 8.132 6.598 6.744 4.731 14.083 8.286 21.776 10.585 7.708 2.306 15.783 3.353 24.002 3.078 5.879-.195 9.935-5.961 8.117-11.557-5.069-15.663-14.884-28.951-28.381-38.435-2.858-2.012-5.861-3.825-8.973-5.413 3.047-1.692 5.995-3.601 8.789-5.705 6.592-4.952 12.232-10.824 16.796-17.436s8.056-13.954 10.342-21.868c.529-1.839.45-3.669-.116-5.32-1.168-3.41-4.393-5.982-8.368-5.978zm-20.758 28.641c-2.549 2.856-5.402 5.479-8.521 7.832-3.739 2.802-7.794 5.152-12.082 6.971-5.276 2.245-8.61 7.426-8.486 13.279.093 5.764 3.586 10.824 8.905 12.89 4.34 1.679 8.479 3.9 12.316 6.585 6.403 4.499 11.72 10.118 15.757 16.587-7.456-1.607-14.541-4.713-20.944-9.212-3.822-2.678-7.306-5.822-10.363-9.324-3.754-4.297-9.689-5.866-15.188-3.981l-.067.023c-5.454 1.87-9.187 6.763-9.504 12.456-.267 4.641-1.092 9.249-2.464 13.72-2.297 7.481-6.002 14.272-10.904 20.116-.769-7.589-.017-15.288 2.28-22.769 1.375-4.46 3.282-8.753 5.679-12.741 2.93-4.906 2.584-11.044-.821-15.561l-.102-.152c-3.455-4.624-9.255-6.675-14.799-5.211-4.502 1.194-9.157 1.83-13.829 1.911-7.822.126-15.426-1.294-22.501-4.154 6.98-3.091 14.528-4.743 22.35-4.869 4.675-.069 9.34.413 13.872 1.453 5.563 1.284 11.294-.942 14.525-5.552l.118-.165c3.346-4.712 3.503-10.873.4-15.705-2.524-3.909-4.569-8.131-6.083-12.548-2.539-7.406-3.536-15.079-3.003-22.691.004.011.015.007.019.019 5.074 5.677 8.983 12.352 11.517 19.747 1.514 4.417 2.489 9.006 2.904 13.638.503 5.723 4.418 10.489 10.033 12.179 5.503 1.691 11.38-.074 14.989-4.489 2.938-3.612 6.326-6.855 10.061-9.668 6.255-4.699 13.24-8.028 20.649-9.87-1.924 3.302-4.165 6.401-6.713 9.256z" fill="#c55732"/><g fill="#a63917"><path d="m337.357 77.969c.566 1.651.645 3.481.116 5.32-2.286 7.913-5.777 15.255-10.342 21.868s-10.204 12.485-16.796 17.436c-2.794 2.104-5.742 4.012-8.789 5.705 3.112 1.588 6.114 3.401 8.973 5.413 13.496 9.484 23.311 22.772 28.381 38.435 1.819 5.596-2.238 11.362-8.117 11.557-8.22.275-16.294-.772-24.002-3.078-7.693-2.299-15.032-5.854-21.776-10.585-2.858-2.012-5.584-4.218-8.132-6.598l-40.654-118.602c2.51-.86 5.387-.612 7.824 1.045 6.818 4.618 12.723 10.21 17.606 16.601 4.868 6.384 8.713 13.566 11.386 21.363 1.135 3.313 2.044 6.691 2.707 10.116 2.474-2.456 5.124-4.76 7.922-6.853 13.191-9.918 28.863-15.141 45.323-15.123 3.975-.005 7.2 2.567 8.37 5.98z"/><path d="m294.292 101.243c-3.735 2.813-7.123 6.056-10.061 9.668-3.609 4.416-9.486 6.181-14.989 4.489-5.615-1.69-9.529-6.456-10.033-12.179-.416-4.631-1.391-9.221-2.904-13.638-2.535-7.395-6.443-14.07-11.517-19.747-.004-.011-.015-.007-.019-.019-.532 7.611.465 15.284 3.003 22.691 1.514 4.417 3.56 8.639 6.083 12.548 3.102 4.832 2.946 10.994-.4 15.705l-.118.165c-3.231 4.61-8.962 6.836-14.525 5.552-4.532-1.039-9.197-1.522-13.872-1.453-7.822.126-15.37 1.778-22.35 4.869 7.075 2.86 14.679 4.28 22.501 4.154 4.672-.081 9.327-.717 13.829-1.911 5.544-1.464 11.344.586 14.799 5.211l.102.152c3.405 4.517 3.752 10.655.821 15.561-2.397 3.988-4.304 8.281-5.679 12.741-2.297 7.481-3.049 15.18-2.28 22.769 4.902-5.844 8.607-12.635 10.904-20.116 1.372-4.471 2.198-9.08 2.464-13.72.317-5.693 4.049-10.587 9.504-12.456l.067-.023c5.499-1.885 11.434-.317 15.188 3.981 3.057 3.502 6.541 6.645 10.363 9.324 6.403 4.499 13.488 7.605 20.944 9.212-4.037-6.469-9.353-12.088-15.757-16.587-3.837-2.686-7.976-4.907-12.316-6.585-5.32-2.065-8.812-7.126-8.905-12.89-.124-5.853 3.211-11.035 8.486-13.279 4.288-1.819 8.343-4.169 12.082-6.971 3.12-2.353 5.972-4.976 8.521-7.832 2.549-2.855 4.79-5.954 6.712-9.256-7.408 1.842-14.394 5.171-20.648 9.87z"/></g></g><path d="m314.94 91.373c-1.922 3.301-4.163 6.4-6.712 9.256s-5.402 5.479-8.521 7.832c-3.739 2.802-7.794 5.152-12.082 6.971-5.276 2.245-8.61 7.426-8.486 13.279.093 5.764 3.586 10.824 8.905 12.89 4.34 1.679 8.479 3.9 12.316 6.585 6.403 4.499 11.72 10.118 15.757 16.587-7.456-1.607-14.541-4.713-20.944-9.212-3.822-2.678-7.306-5.822-10.363-9.324-3.754-4.297-9.689-5.866-15.188-3.981l-.011.004-24.824-72.424c5.074 5.677 8.983 12.352 11.517 19.747 1.514 4.417 2.489 9.006 2.904 13.638.503 5.723 4.418 10.489 10.033 12.179 5.503 1.691 11.38-.074 14.989-4.489 2.938-3.612 6.326-6.855 10.061-9.668 6.255-4.699 13.241-8.028 20.649-9.87z" fill="#7f200d"/></g><g><g><path d="m495.194 279.541c-17.452-9.744-37.165-13.463-57.021-10.735-4.205.568-8.378 1.447-12.454 2.59 1.32-4.025 2.352-8.146 3.105-12.332 1.772-9.851 1.936-19.743.543-29.392-1.404-9.666-4.365-19.087-8.87-28.016-1.607-3.199-4.513-5.162-7.684-5.732l-.014-.003c-3.157-.568-6.579.257-9.199 2.696-14.664 13.585-24.289 31.189-27.835 50.904-.753 4.186-1.207 8.41-1.374 12.657-3.419-2.506-7.028-4.77-10.771-6.767-8.611-4.618-17.731-7.786-27.103-9.472-9.837-1.769-19.954-1.901-30.068-.345-7.062 1.087-11.112 8.637-8.115 15.111l-.003.014c8.391 18.138 22.163 32.734 39.826 42.195 3.741 2.011 7.617 3.756 11.601 5.229-3.429 2.482-6.698 5.211-9.773 8.15-14.437 13.858-23.784 31.614-26.995 51.332l-.003.014c-.954 5.953 3.121 11.284 8.688 12.285 1.029.185 2.097.232 3.198.095 19.848-2.366 37.977-10.949 52.43-24.819 3.077-2.953 5.942-6.104 8.563-9.43 1.297 4.03 2.885 7.982 4.729 11.806 4.36 9.004 10.046 17.112 16.849 24.097 6.815 7.001 14.763 12.883 23.646 17.448 6.352 3.266 14.063-.454 15.44-7.466 3.876-19.613 1.315-39.51-7.4-57.547-1.844-3.823-3.958-7.521-6.321-11.044 4.233.005 8.488-.278 12.695-.859 9.919-1.359 19.373-4.256 28.122-8.575s16.792-10.045 23.893-17.09c1.648-1.639 2.645-3.627 3.021-5.713.775-4.308-1.127-8.942-5.346-11.286zm-38.947 18.121c-4.391 1.524-8.968 2.621-13.668 3.274-5.622.764-11.314.861-16.937.257-6.924-.736-13.523 2.791-16.85 9.074-3.307 6.17-2.592 13.602 1.832 18.937 3.612 4.345 6.691 9.147 9.176 14.264 4.135 8.556 6.455 17.659 6.916 26.908-6.961-6.111-12.642-13.592-16.778-22.149-2.473-5.1-4.311-10.494-5.485-16.015-1.443-6.777-6.813-11.948-13.761-13.197l-.084-.015c-6.891-1.239-13.743 1.748-17.443 7.6-3.025 4.766-6.624 9.167-10.721 13.101-6.857 6.579-14.801 11.596-23.455 14.899 3.668-8.506 9.015-16.23 15.872-22.809 4.095-3.919 8.654-7.347 13.554-10.162 6.008-3.473 9.267-10.191 8.323-16.995l-.018-.221c-.933-6.947-5.876-12.55-12.622-14.272-5.482-1.393-10.797-3.469-15.801-6.144-8.373-4.488-15.601-10.487-21.418-17.702 9.232.845 18.216 3.552 26.589 8.041 5.001 2.689 9.666 5.957 13.859 9.738 5.143 4.649 12.539 5.674 18.691 2.692l.223-.105c6.334-3.022 10.141-9.466 9.704-16.426-.368-5.638-.043-11.327.96-16.907 1.683-9.358 5.159-18.087 10.221-25.848-.003.014.012.017.009.031 2.029 9.021 2.232 18.412.551 27.756-1.004 5.581-2.681 11.026-4.977 16.185-2.848 6.369-1.51 13.739 3.448 18.849 4.839 5.046 12.117 6.646 18.555 4.094 5.251-2.096 10.762-3.535 16.386-4.313 9.412-1.29 18.791-.694 27.739 1.73-3.99 2.363-8.199 4.326-12.59 5.85z" fill="#c55732"/><g fill="#a63917"><path d="m500.539 290.831c-.375 2.086-1.373 4.074-3.021 5.713-7.101 7.045-15.143 12.771-23.893 17.09-8.749 4.319-18.203 7.216-28.122 8.575-4.207.582-8.463.864-12.695.859 2.363 3.524 4.477 7.221 6.321 11.044 8.715 18.036 11.276 37.934 7.4 57.547-1.377 7.012-9.088 10.732-15.44 7.466-8.883-4.565-16.831-10.447-23.646-17.448-6.804-6.985-12.489-15.092-16.849-24.097-1.844-3.823-3.432-7.775-4.729-11.806l26.949-149.849c3.171.57 6.077 2.533 7.684 5.732 4.505 8.928 7.466 18.35 8.87 28.016 1.393 9.649 1.229 19.541-.543 29.392-.753 4.186-1.785 8.306-3.105 12.332 4.076-1.144 8.249-2.023 12.454-2.59 19.855-2.729 39.569.991 57.021 10.735 4.218 2.343 6.12 6.977 5.344 11.289z"/><path d="m441.098 290.078c-5.625.778-11.135 2.216-16.386 4.313-6.438 2.552-13.716.952-18.555-4.094-4.958-5.111-6.295-12.48-3.448-18.849 2.295-5.159 3.973-10.604 4.977-16.185 1.68-9.344 1.478-18.735-.551-27.756.003-.014-.012-.017-.009-.031-5.062 7.761-8.538 16.49-10.221 25.848-1.004 5.581-1.328 11.269-.96 16.907.436 6.96-3.371 13.404-9.704 16.426l-.223.105c-6.152 2.982-13.548 1.957-18.691-2.692-4.194-3.78-8.858-7.049-13.859-9.738-8.373-4.488-17.357-7.195-26.589-8.041 5.817 7.215 13.045 13.214 21.418 17.702 5.004 2.675 10.319 4.751 15.801 6.144 6.746 1.722 11.689 7.325 12.622 14.272l.018.221c.944 6.804-2.315 13.521-8.323 16.995-4.9 2.814-9.459 6.242-13.554 10.162-6.857 6.579-12.204 14.303-15.872 22.809 8.654-3.303 16.598-8.319 23.455-14.899 4.097-3.933 7.697-8.334 10.721-13.101 3.7-5.852 10.552-8.839 17.443-7.6l.084.015c6.948 1.249 12.318 6.42 13.761 13.197 1.175 5.521 3.013 10.915 5.485 16.015 4.135 8.556 9.817 16.038 16.778 22.149-.461-9.248-2.781-18.351-6.916-26.908-2.484-5.117-5.563-9.919-9.176-14.264-4.424-5.335-5.139-12.767-1.832-18.937 3.327-6.283 9.926-9.81 16.85-9.074 5.624.604 11.315.507 16.937-.257 4.7-.653 9.277-1.751 13.668-3.274s8.6-3.487 12.59-5.854c-8.948-2.42-18.327-3.015-27.739-1.726z"/></g></g><path d="m468.837 291.808c-3.99 2.367-8.199 4.331-12.59 5.854-4.391 1.524-8.968 2.621-13.668 3.274-5.622.764-11.314.861-16.937.257-6.924-.736-13.523 2.791-16.85 9.074-3.307 6.17-2.592 13.602 1.832 18.937 3.612 4.345 6.691 9.147 9.176 14.264 4.135 8.556 6.455 17.659 6.916 26.908-6.961-6.111-12.642-13.592-16.778-22.149-2.473-5.1-4.311-10.494-5.485-16.015-1.443-6.777-6.813-11.948-13.761-13.197l-.014-.003 16.456-91.505c2.029 9.021 2.232 18.412.551 27.756-1.004 5.581-2.681 11.026-4.977 16.185-2.848 6.369-1.51 13.739 3.448 18.849 4.839 5.046 12.117 6.646 18.555 4.094 5.251-2.096 10.762-3.535 16.386-4.313 9.413-1.289 18.792-.694 27.74 1.73z" fill="#7f200d"/></g><g><g><path d="m361.55 437.31c-14.37-8.02-30.6-11.08-46.95-8.84-3.47.47-6.9 1.2-10.26 2.14 1.09-3.32 1.94-6.71 2.56-10.16 1.46-8.11 1.59-16.26.45-24.2-1.16-7.96-3.6-15.72-7.31-23.07-1.32-2.63-3.71-4.25-6.33-4.72h-.01c-2.6-.47-5.41.21-7.57 2.22-12.08 11.18-20 25.68-22.92 41.91-.62 3.45-1 6.93-1.14 10.43-2.81-2.07-5.78-3.93-8.87-5.57-7.09-3.81-14.6-6.42-22.31-7.8-8.1-1.46-16.43-1.57-24.76-.29-5.82.9-9.15 7.11-6.69 12.45v.01c6.91 14.93 18.25 26.95 32.8 34.74 3.08 1.66 6.27 3.1 9.55 4.31-2.82 2.04-5.52 4.29-8.05 6.71-11.49 11.02-19.05 25.04-21.94 40.62 11.67 2.03 23.62 3.27 35.78 3.67 6.1-3.24 11.78-7.34 16.89-12.25 2.54-2.43 4.89-5.03 7.05-7.77 1.07 3.32 2.38 6.58 3.9 9.73 1.57 3.22 3.33 6.31 5.29 9.24 6.85-.65 13.61-1.58 20.28-2.77-3.86-4.17-7.11-8.93-9.64-14.18-2.04-4.2-3.55-8.64-4.52-13.18-1.19-5.58-5.61-9.84-11.33-10.87l-.07-.01c-5.68-1.02-11.32 1.44-14.37 6.25-2.49 3.93-5.45 7.55-8.82 10.79-5.65 5.42-12.19 9.55-19.32 12.27 3.02-7 7.42-13.36 13.07-18.78 3.37-3.23 7.13-6.05 11.16-8.37 4.95-2.86 7.63-8.39 6.86-13.99l-.02-.19c-.77-5.72-4.84-10.33-10.39-11.75-4.52-1.15-8.89-2.86-13.01-5.06-6.9-3.69-12.85-8.63-17.64-14.58 7.6.7 15 2.93 21.89 6.63 4.12 2.21 7.96 4.9 11.42 8.01 4.23 3.83 10.32 4.68 15.39 2.22l.18-.09c5.22-2.48 8.35-7.79 7.99-13.52-.3-4.64-.03-9.33.79-13.92 1.39-7.71 4.25-14.9 8.42-21.29 0 .01.01.01.01.03 1.67 7.42 1.83 15.16.45 22.85-.83 4.6-2.21 9.08-4.1 13.33-2.34 5.24-1.24 11.31 2.84 15.52 3.99 4.16 9.98 5.47 15.28 3.37 4.33-1.72 8.86-2.91 13.5-3.55 7.75-1.06 15.47-.57 22.84 1.43-3.29 1.94-6.75 3.56-10.37 4.82-3.62 1.25-7.38 2.15-11.26 2.69-4.62.63-9.31.71-13.94.21-5.7-.6-11.14 2.3-13.88 7.48-2.72 5.08-2.13 11.2 1.51 15.59 2.98 3.58 5.51 7.53 7.56 11.75 2.69 5.57 4.45 11.43 5.25 17.41 5.84-1.13 11.61-2.45 17.3-3.97-1.14-7.26-3.36-14.37-6.64-21.15-1.51-3.15-3.25-6.19-5.2-9.09 3.48 0 6.99-.23 10.45-.71 8.17-1.12 15.96-3.51 23.16-7.06 7.21-3.56 13.83-8.27 19.68-14.07 1.35-1.35 2.17-2.99 2.48-4.71.64-3.55-.92-7.37-4.4-9.3z" fill="#c55732"/><g fill="#a63917"><path d="m365.95 446.61c-.31 1.72-1.13 3.36-2.48 4.71-5.85 5.8-12.47 10.51-19.68 14.07-7.2 3.55-14.99 5.94-23.16 7.06-3.46.48-6.97.71-10.45.71 1.95 2.9 3.69 5.94 5.2 9.09 3.28 6.78 5.5 13.89 6.64 21.15-5.69 1.52-11.46 2.84-17.3 3.97-1.24.24-2.48.47-3.73.68-6.67 1.19-13.43 2.12-20.28 2.77-1.96-2.93-3.72-6.02-5.29-9.24-1.52-3.15-2.83-6.41-3.9-9.73l22.19-123.39c2.62.47 5.01 2.09 6.33 4.72 3.71 7.35 6.15 15.11 7.31 23.07 1.14 7.94 1.01 16.09-.45 24.2-.62 3.45-1.47 6.84-2.56 10.16 3.36-.94 6.79-1.67 10.26-2.14 16.35-2.24 32.58.82 46.95 8.84 3.48 1.93 5.04 5.75 4.4 9.3z"/><path d="m317.01 445.99c-4.64.64-9.17 1.83-13.5 3.55-5.3 2.1-11.29.79-15.28-3.37-4.08-4.21-5.18-10.28-2.84-15.52 1.89-4.25 3.27-8.73 4.1-13.33 1.38-7.69 1.22-15.43-.45-22.85 0-.02-.01-.02-.01-.03-4.17 6.39-7.03 13.58-8.42 21.29-.82 4.59-1.09 9.28-.79 13.92.36 5.73-2.77 11.04-7.99 13.52l-.18.09c-5.07 2.46-11.16 1.61-15.39-2.22-3.46-3.11-7.3-5.8-11.42-8.01-6.89-3.7-14.29-5.93-21.89-6.63 4.79 5.95 10.74 10.89 17.64 14.58 4.12 2.2 8.49 3.91 13.01 5.06 5.55 1.42 9.62 6.03 10.39 11.75l.02.19c.77 5.6-1.91 11.13-6.86 13.99-4.03 2.32-7.79 5.14-11.16 8.37-5.65 5.42-10.05 11.78-13.07 18.78 7.13-2.72 13.67-6.85 19.32-12.27 3.37-3.24 6.33-6.86 8.82-10.79 3.05-4.81 8.69-7.27 14.37-6.25l.07.01c5.72 1.03 10.14 5.29 11.33 10.87.97 4.54 2.48 8.98 4.52 13.18 2.53 5.25 5.78 10.01 9.64 14.18 1.25-.21 2.49-.44 3.73-.68-.8-5.98-2.56-11.84-5.25-17.41-2.05-4.22-4.58-8.17-7.56-11.75-3.64-4.39-4.23-10.51-1.51-15.59 2.74-5.18 8.18-8.08 13.88-7.48 4.63.5 9.32.42 13.94-.21 3.88-.54 7.64-1.44 11.26-2.69 3.62-1.26 7.08-2.88 10.37-4.82-7.37-2-15.09-2.49-22.84-1.43z"/></g></g><path d="m339.85 447.42c-3.29 1.94-6.75 3.56-10.37 4.82-3.62 1.25-7.38 2.15-11.26 2.69-4.62.63-9.31.71-13.94.21-5.7-.6-11.14 2.3-13.88 7.48-2.72 5.08-2.13 11.2 1.51 15.59 2.98 3.58 5.51 7.53 7.56 11.75 2.69 5.57 4.45 11.43 5.25 17.41-1.24.24-2.48.47-3.73.68-3.86-4.17-7.11-8.93-9.64-14.18-2.04-4.2-3.55-8.64-4.52-13.18-1.19-5.58-5.61-9.84-11.33-10.87h-.01l13.55-75.35c1.67 7.42 1.83 15.16.45 22.85-.83 4.6-2.21 9.08-4.1 13.33-2.34 5.24-1.24 11.31 2.84 15.52 3.99 4.16 9.98 5.47 15.28 3.37 4.33-1.72 8.86-2.91 13.5-3.55 7.75-1.06 15.47-.57 22.84 1.43z" fill="#7f200d"/></g></g></g></svg>