<svg x="0" y="0" width="1080" height="540" viewBox="0 0 1080 540" xmlns="http://www.w3.org/2000/svg" xmlns:xlink="http://www.w3.org/1999/xlink" xmlns:fi="http://pattern.flaticon.com/"><rect x="0px" y="0px" width="100%" height="100%" opacity="1" fill="#ffffff"/><defs><g transform="matrix(0.11718795448541641 0 0 0.11718795448541641 74 316)" id="L1_3"><path d="M497.404,130.211c-2.469-4.938-8.474-6.94-13.415-4.471c-4.938,2.47-6.941,8.476-4.471,13.415    c22.739,45.478,13.841,100.209-22.141,136.19c-46.002,46.002-120.853,46.002-166.855,0s-46.002-120.853,0-166.854    c34.296-34.296,85.27-44.139,129.862-25.073c5.078,2.172,10.953-0.186,13.124-5.263c2.171-5.077-0.186-10.954-5.263-13.124    c-25.051-10.711-52.503-13.756-79.391-8.805c-18.785,3.458-36.412,10.698-52.031,21.253    c-6.679-13.704-15.561-26.148-26.474-37.061c-17.01-17.01-38.205-29.313-61.294-35.58c-22.382-6.076-46.136-6.415-68.697-0.984    c-3.651,0.879-6.501,3.729-7.38,7.38c-5.432,22.56-5.091,46.314,0.984,68.697c4.659,17.15,12.652,33.252,23.424,47.374    c-3.655,0.57-7.293,1.281-10.904,2.15c-3.651,0.879-6.501,3.729-7.38,7.38c-5.432,22.56-5.091,46.314,0.984,68.697    c6.268,23.089,18.572,44.284,35.58,61.294c26.076,26.075,61.355,40.405,97.671,40.402c7.352,0,14.753-0.596,22.122-1.793    c22.891,15.899,50.031,24.465,78.491,24.465c36.856,0,71.506-14.352,97.568-40.414C513.594,247.408,523.997,183.4,497.404,130.211    z M151.122,21.993c38.385-7.192,77.272,4.748,105.089,32.565c10.386,10.385,18.614,22.382,24.488,35.672    c-1.462,1.343-2.905,2.71-4.315,4.12c-6.634,6.634-12.447,13.784-17.446,21.318l-63.595-63.595    c-3.904-3.904-10.236-3.904-14.141,0c-3.904,3.904-3.904,10.236,0,14.141l67.592,67.592c-1.327,2.865-2.545,5.769-3.664,8.701    c-19.257-10.516-40.902-16.225-62.777-16.8C155.498,97.993,144.046,59.756,151.122,21.993z M189.808,252.684    c-27.815-27.814-39.756-66.697-32.566-105.081c28.081-5.193,57.553,0.008,82.01,14.575c-3.733,17.04-4.209,34.653-1.442,51.842    l-36.344-36.344c-3.904-3.904-10.236-3.904-14.141,0c-3.904,3.904-3.904,10.236,0,14.141l64.314,64.314    c0.106,0.106,0.221,0.198,0.33,0.298c5.811,11.003,13.211,21.377,22.201,30.784C242.817,287.437,212.301,275.18,189.808,252.684z" fill="#ffc108"/><path d="M298.391,495.738l-34.782-43.999c-18.382-23.254-36.014-47.563-52.406-72.251c-3.056-4.602-9.26-5.853-13.861-2.8    c-4.6,3.056-5.853,9.261-2.799,13.86c16.697,25.146,34.655,49.905,53.378,73.591l19.826,25.082l-13.139-1.528    c-63.968-7.442-122.661-38.135-165.268-86.424l-1.765-2c-38.996-44.195-62.297-99.518-66.771-157.618l5.03-4.228    c4.775-4.013,11.053-5.812,17.23-4.927l13.855,1.979c4.215,0.603,8.352-1.532,10.303-5.319    c4.584-8.898,14.603-13.567,24.366-11.355l10.377,2.352c15.09,34.764,32.123,69.08,50.711,102.064    c2.712,4.81,8.81,6.511,13.62,3.802c4.811-2.712,6.513-8.81,3.802-13.62c-19.073-33.842-36.502-69.109-51.802-104.817    c-11.363-26.523-37.351-43.661-66.206-43.661c-2.135,0-4.235,0.144-6.304,0.395c1.294-20.319,9.804-39.247,24.33-53.774    c3.904-3.904,3.904-10.236,0-14.14s-10.236-3.904-14.14,0c-19.591,19.591-30.381,45.64-30.381,73.346v1.44    C10.293,180.266,0.006,196.944,0,215.987v4.977c-0.002,5.465,0.17,10.914,0.477,16.343c0.001,0.362,0.021,0.724,0.062,1.085    C4.404,302.559,29.629,363.82,72.581,412.5l1.765,2c45.878,51.994,109.076,85.042,177.951,93.055l37.094,4.315    c0.388,0.046,0.774,0.067,1.159,0.067c3.592,0,6.949-1.939,8.729-5.127C301.249,503.279,300.899,498.909,298.391,495.738z     M19.998,215.994c0.006-17.688,14.402-32.078,32.093-32.078c13.129,0,25.434,4.915,34.796,13.339    c-13.09-0.052-25.538,6.051-33.509,16.514l-7.485-1.069c-8.968-1.281-18.047,0.4-25.896,4.643V215.994z" fill="#ffc108"/><path d="M192.316,350.019l-0.167-0.271c-2.886-4.709-9.043-6.185-13.749-3.299c-4.708,2.887-6.186,9.042-3.3,13.75l0.167,0.271    c1.887,3.079,5.17,4.774,8.534,4.774c1.782,0,3.586-0.476,5.215-1.475C193.725,360.883,195.203,354.727,192.316,350.019z" fill="#ffc108"/><path d="M473.03,95.885c-0.5-0.516-1.003-1.027-1.512-1.536c-3.904-3.904-10.236-3.904-14.141,0    c-3.904,3.904-3.904,10.236,0,14.141c0.437,0.435,0.868,0.873,1.295,1.313c1.961,2.023,4.568,3.04,7.18,3.04    c2.507,0,5.016-0.937,6.958-2.82C476.776,106.179,476.874,99.849,473.03,95.885z" fill="#ffc108"/><path d="M373.951,89.931c-56.236,0-101.986,45.751-101.986,101.986s45.751,101.986,101.986,101.986    s101.986-45.751,101.986-101.986S430.187,89.931,373.951,89.931z M298.481,223.945c-4.194-9.845-6.519-20.669-6.519-32.028    c0-11.359,2.325-22.183,6.518-32.027l55.474,32.028L298.481,223.945z M363.953,273.274c-22.585-2.76-42.363-14.72-55.443-32.03    l55.443-32.01V273.274z M363.953,174.598l-55.443-32.01c13.079-17.309,32.858-29.269,55.443-32.03V174.598z M383.949,110.56    c22.585,2.76,42.363,14.72,55.443,32.03l-55.443,32.01V110.56z M383.95,273.274v-64.039l55.443,32.01    C426.312,258.554,406.534,270.514,383.95,273.274z M393.949,191.918l55.474-32.028c4.192,9.844,6.518,20.668,6.518,32.027    c0,11.358-2.325,22.183-6.519,32.028L393.949,191.918z" fill="#ffc108"/><path d="M362.467,360.996c-9.419-13.229-22.271-20.514-36.189-20.514s-26.77,7.285-36.189,20.514    c-8.687,12.199-13.47,28.247-13.47,45.186s4.784,32.987,13.47,45.185c9.419,13.228,22.271,20.514,36.189,20.514    c13.918,0,26.77-7.285,36.189-20.514c8.687-12.198,13.47-28.246,13.47-45.185S371.153,373.196,362.467,360.996z M326.278,451.884    c-4.631,0-11.634-9.837-11.634-24.664c0-14.826,7.003-24.663,11.634-24.663s11.634,9.837,11.634,24.663    C337.912,442.048,330.909,451.884,326.278,451.884z M355.78,410.835c-4.538-16.704-15.883-28.274-29.501-28.274    c-13.618,0-24.963,11.569-29.501,28.274c-0.106-1.533-0.161-3.085-0.161-4.652c-0.001-24.774,13.582-45.703,29.661-45.703    c16.079,0,29.663,20.93,29.663,45.703C355.941,407.75,355.886,409.302,355.78,410.835z" fill="#ffc108"/><path d="M511.125,459.974c-2.484-14.768-10.449-29.498-22.427-41.477c-11.977-11.977-26.707-19.942-41.477-22.427    c-16.015-2.691-30.254,1.244-40.095,11.086c-9.842,9.842-13.779,24.081-11.086,40.096c2.485,14.769,10.449,29.498,22.427,41.475    c11.978,11.977,26.707,19.942,41.477,22.427c3.291,0.554,6.504,0.827,9.623,0.827c12.056-0.001,22.654-4.092,30.473-11.911    C509.882,490.227,513.819,475.988,511.125,459.974z M436.021,477.778c-1.162-1.016-2.301-2.08-3.412-3.19    c-9.064-9.065-15.047-19.949-16.848-30.653c-1.591-9.458,0.364-17.498,5.505-22.638c3.974-3.976,9.68-6.045,16.436-6.045    c1.982,0,4.056,0.179,6.202,0.54c10.704,1.8,21.59,7.783,30.653,16.847c1.109,1.109,2.167,2.245,3.176,3.404    c-15.02-8.601-31.223-8.76-40.853,0.868C427.249,446.543,427.411,462.753,436.021,477.778z M485.901,485.93    c-3.276,3.277-15.185,1.271-25.668-9.213c-10.484-10.484-12.488-22.392-9.213-25.667c0.936-0.936,2.574-1.44,4.682-1.44    c5.276,0,13.495,3.163,20.985,10.653c5.165,5.164,8.875,11.359,10.18,16.996C487.774,481.176,487.412,484.418,485.901,485.93z" fill="#ffc108"/><path d="M483.006,323.893c-1.86-1.86-4.439-2.93-7.069-2.93c-2.63,0-5.208,1.07-7.069,2.93c-1.86,1.86-2.93,4.439-2.93,7.069    s1.07,5.209,2.93,7.068c1.86,1.86,4.439,2.931,7.069,2.931c2.63,0,5.209-1.07,7.069-2.931c1.86-1.859,2.93-4.438,2.93-7.068    S484.866,325.753,483.006,323.893z" fill="#ffc108"/><path d="M421.014,343.412c-1.86-1.86-4.439-2.931-7.069-2.931c-2.63,0-5.208,1.07-7.069,2.931c-1.86,1.859-2.93,4.438-2.93,7.068    c0,2.63,1.07,5.209,2.93,7.069c1.86,1.86,4.439,2.93,7.069,2.93c2.63,0,5.209-1.069,7.069-2.93c1.86-1.861,2.93-4.439,2.93-7.069    C423.944,347.85,422.874,345.271,421.014,343.412z" fill="#ffc108"/><path d="M460.649,355.879c-1.86-1.86-4.439-2.93-7.069-2.93c-2.63,0.001-5.209,1.07-7.069,2.93s-2.93,4.429-2.93,7.069    c0,2.63,1.07,5.209,2.93,7.068c1.86,1.86,4.439,2.931,7.069,2.931s5.209-1.07,7.069-2.931c1.87-1.859,2.93-4.438,2.93-7.068    C463.578,360.308,462.519,357.739,460.649,355.879z" fill="#ffc108"/></g><path d="M208.776,248.205c1.18,0.793,2.542,1.189,3.903,1.189s2.723-0.396,3.903-1.189  c12.754-8.566,20.369-22.845,20.369-38.195c0-15.35-7.614-29.628-20.369-38.194c-2.36-1.586-5.445-1.586-7.806,0  c-12.755,8.567-20.371,22.846-20.371,38.194C188.406,225.359,196.021,239.637,208.776,248.205z M212.679,186.52  c6.503,6.01,10.271,14.485,10.271,23.489c0,9.005-3.768,17.48-10.271,23.49c-6.504-6.011-10.273-14.486-10.273-23.49  C202.406,201.006,206.175,192.531,212.679,186.52z M319.596,425.962c0,3.866-3.134,7-7,7H204.293c-2.299,0-4.452-1.129-5.759-3.021  c-1.307-1.893-1.602-4.306-0.788-6.456l45.644-120.68c17.797-47.064,41.806-72.985,67.604-72.985  c25.799,0,49.809,25.92,67.606,72.986l1.007,2.669c1.365,3.617-0.46,7.655-4.077,9.021c-3.619,1.367-7.656-0.461-9.021-4.077  l-1.006-2.665c-15.364-40.629-35.232-63.934-54.509-63.934c-19.277,0-39.146,23.305-54.51,63.938l-42.06,111.204h98.171  C316.462,418.962,319.596,422.096,319.596,425.962z M72.203,298.187c-8.958-24.379-5.195-51.503,10.064-72.557  c1.668-2.303,4.563-3.366,7.328-2.693c22.761,5.556,41.611,20.808,51.717,41.847c1.674,3.485,0.206,7.667-3.279,9.341  s-7.667,0.205-9.34-3.278c-7.587-15.795-21.193-27.612-37.773-32.99c-10.242,16.621-12.365,37.024-5.576,55.502  c5.385,14.653,15.827,26.6,29.181,33.927c-4.997-10.812-8.631-22.229-10.865-34.162c-0.019-0.099-0.035-0.198-0.049-0.298  c-0.547-3.827,2.112-7.377,5.939-7.923c3.755-0.539,7.229,2.003,7.882,5.705c3.662,19.512,11.47,37.5,23.209,53.464  c2.291,3.114,1.623,7.495-1.492,9.786c-1.249,0.918-2.702,1.36-4.141,1.36c-2.151,0-4.273-0.987-5.646-2.854  c-1.402-1.906-2.753-3.839-4.054-5.797C100.76,340.046,80.978,322.063,72.203,298.187z M175.834,418.962h-6.679V163.531  c0-15.444,10.484-28.886,25.496-32.687c3.106-0.787,5.282-3.582,5.282-6.786V79.299h25.491v44.759c0,3.204,2.176,6,5.283,6.786  c15.011,3.799,25.494,17.24,25.494,32.687v65.395c0,3.866,3.134,7,7,7s7-3.134,7-7v-65.395c0-20-12.409-37.623-30.777-44.595V77.867  c1.675-1.279,2.756-3.297,2.756-5.567V21.776c0-3.866-3.134-7-7-7h-45.005c-3.866,0-7,3.134-7,7v50.523  c0,2.271,1.082,4.289,2.757,5.568v41.069c-18.368,6.973-30.778,24.596-30.778,44.594v262.432c0,3.866,3.134,7,7,7h13.679  c3.866,0,7-3.134,7-7S179.7,418.962,175.834,418.962z M197.176,28.776h31.005v36.523h-31.005V28.776z M343.602,297.232  c3.866,0,7,3.134,7,7s-3.134,7-7,7h-2.101c-3.866,0-7-3.134-7-7s3.134-7,7-7H343.602z M135.672,368.33  c-4.753-0.457-9.503-0.641-14.236-0.67c-20.201-14.955-46.295-19.271-70.276-11.515C26.448,364.136,7.424,383.832,0.27,408.83  c-0.782,2.734,0.167,5.67,2.402,7.428c13.943,10.966,30.914,16.697,48.139,16.697c8.026,0,16.111-1.246,23.965-3.786  c22.971-7.43,41.027-24.975,49.201-47.489c3.446,0.059,6.899,0.254,10.354,0.586c3.846,0.36,7.268-2.45,7.638-6.298  S139.52,368.7,135.672,368.33z M70.469,415.848c-18.727,6.057-39.03,3.134-55.238-7.755c6.761-18.314,21.507-32.57,40.237-38.628  c13.463-4.356,27.74-4.07,40.724,0.481c-5.565,1.005-11.091,2.339-16.564,4.002c-0.06,0.018-0.119,0.037-0.178,0.057l-0.006,0.002  c-3.668,1.223-5.647,5.186-4.424,8.854c1.204,3.612,5.071,5.589,8.693,4.479c8.17-2.481,16.472-4.153,24.847-5.008  C101.101,398.171,87.416,410.367,70.469,415.848z M332.153,382.669c0,3.866-3.134,7-7,7h-2.102c-3.866,0-7-3.134-7-7s3.134-7,7-7  h2.102C329.019,375.669,332.153,378.803,332.153,382.669z M412.504,400.702c0,3.866-3.134,7-7,7h-2.101c-3.866,0-7-3.134-7-7  s3.134-7,7-7h2.101C409.37,393.702,412.504,396.835,412.504,400.702z M287.487,304.232c0,3.866-3.134,7-7,7h-2.102  c-3.866,0-7-3.134-7-7s3.134-7,7-7h2.102C284.353,297.232,287.487,300.366,287.487,304.232z M447.286,423.486l-21.888-57.873  c-11.675-30.874-25.928-37.355-35.828-37.355c-9.901,0-24.154,6.481-35.829,37.354l-21.888,57.874  c-0.813,2.151-0.519,4.563,0.788,6.456c1.307,1.892,3.46,3.021,5.759,3.021h102.338c2.299,0,4.452-1.129,5.759-3.021  C447.804,428.049,448.099,425.637,447.286,423.486z M348.531,418.962l18.304-48.398c6.703-17.725,15.201-28.307,22.734-28.307  c7.532,0,16.031,10.582,22.733,28.308l18.304,48.397H348.531z M289.837,333.718c0-3.866,3.134-7,7-7h2.101c3.866,0,7,3.134,7,7  s-3.134,7-7,7h-2.101C292.971,340.718,289.837,337.584,289.837,333.718z M289.837,277.827c0-3.866,3.134-7,7-7h2.101  c3.866,0,7,3.134,7,7s-3.134,7-7,7h-2.101C292.971,284.827,289.837,281.693,289.837,277.827z M309.945,311.232c-3.866,0-7-3.134-7-7  s3.134-7,7-7h2.1c3.866,0,7,3.134,7,7s-3.134,7-7,7H309.945z M323.051,284.827c-3.866,0-7-3.134-7-7s3.134-7,7-7h2.102  c3.866,0,7,3.134,7,7s-3.134,7-7,7H323.051z" transform="matrix(0.13400694727897644 0 0 0.13400694727897644 177 52.99999237060547)" id="L1_4" fill="#785548"/><g transform="matrix(0.11695931851863861 0 0 0.11695931851863861 83 155)" id="L1_5"><path d="m301.082031 293.050781c-1.796875 0-3.585937-.59375-5.066406-1.765625-2.792969-2.21875-3.816406-5.988281-2.527344-9.3125l8.5-21.988281c9.582031-24.777344 28.179688-44.457031 52.371094-55.398437 8.929687-4.058594 19.496094-.070313 23.550781 8.863281 2.664063 5.894531 1.925782 12.773437-1.921875 17.957031l-8.351562 11.230469c-6.699219 9.085937-14.859375 16.945312-24.21875 23.328125l-37.753907 25.679687c-1.386718.9375-2.984374 1.40625-4.582031 1.40625zm60.488281-73.730469c-.175781 0-.339843.03125-.492187.101563-19.5 8.816406-34.65625 24.394531-42.933594 44.03125l16.105469-10.949219c7.832031-5.339844 14.667969-11.925781 20.300781-19.5625l8.363281-11.25c.328126-.433594.390626-1.019531.160157-1.519531-.222657-.496094-.90625-.851563-1.503907-.851563zm0 0" fill="#ff9900"/><path d="m298.589844 298.425781c-3.441406 0-6.527344-2.171875-7.679688-5.4375-1.183594-3.355469-.046875-7.09375 2.808594-9.226562l18.910156-14.121094c21.300782-15.886719 47.519532-22.636719 73.816406-19.035156 9.707032 1.320312 16.546876 10.304687 15.234376 20.03125-.882813 6.414062-5.160157 11.847656-11.179688 14.183593l-13.074219 5.113282c-10.542969 4.121094-21.628906 6.417968-32.941406 6.832031l-45.597656 1.652344c-.097657.007812-.199219.007812-.296875.007812zm74.035156-32.480469c-17.21875 0-33.933594 5.253907-48.199219 15.25l19.460938-.699218c9.476562-.351563 18.773437-2.28125 27.609375-5.734375l13.085937-5.113281c.519531-.199219.882813-.660157.964844-1.207032.101563-.820312-.476563-1.589844-1.304687-1.703125-3.882813-.53125-7.769532-.792969-11.617188-.792969zm0 0" fill="#ff9900"/><path d="m298.019531 295.828125c-.167969 0-.335937-.007813-.5-.019531-3.5625-.222656-6.5625-2.726563-7.410156-6.191406l-5.609375-22.933594c-6.335938-25.792969-2.34375-52.578125 11.238281-75.410156 5.007813-8.433594 15.949219-11.234376 24.386719-6.203126 5.542969 3.296876 8.882812 9.351563 8.707031 15.800782l-.390625 14.050781c-.324218 11.316406-2.535156 22.414063-6.566406 33.003906l-16.246094 42.652344c-1.207031 3.171875-4.246094 5.25-7.609375 5.25zm13.015625-96.976563c-.515625 0-1.015625.269532-1.300781.746094-10.945313 18.390625-14.457031 39.847656-9.996094 60.683594l6.917969-18.15625c3.386719-8.878906 5.238281-18.183594 5.503906-27.664062l.386719-14.042969c.019531-.550781-.269531-1.074219-.746094-1.355469-.238281-.140625-.503906-.210938-.765625-.210938zm0 0" fill="#ff9900"/><path d="m290.832031 295.308594c-2.394531 0-4.734375-1.058594-6.316406-2.996094l-14.910156-18.304688c-16.777344-20.601562-24.648438-46.503906-22.144531-72.949218.445312-4.730469 2.703124-9.007813 6.367187-12.039063 3.667969-3.027343 8.253906-4.433593 13.019531-4.007812 6.414063.601562 12.023438 4.644531 14.613282 10.550781l5.695312 12.832031c4.582031 10.398438 7.347656 21.378907 8.230469 32.65625l3.5625 45.480469c.277343 3.554688-1.789063 6.871094-5.089844 8.195312-.984375.390626-2.011719.582032-3.027344.582032zm-25.652343-94.089844c-.773438 0-1.433594.589844-1.511719 1.371094-2.011719 21.324218 4.015625 42.226562 17 59.15625l-1.519531-19.421875c-.738282-9.449219-3.054688-18.644531-6.886719-27.347657l-5.691407-12.835937c-.230468-.523437-.699218-.859375-1.242187-.910156-.054687-.007813-.101563-.011719-.148437-.011719zm0 0" fill="#ff9900"/><path d="m172.453125 218.679688c-2.742187 0-5.363281-1.386719-6.878906-3.78125l-12.640625-19.929688c-14.226563-22.433594-18.972656-49.089844-13.367188-75.058594.996094-4.640625 3.742188-8.621094 7.738282-11.203125 3.996093-2.578125 8.742187-3.449219 13.398437-2.457031 6.296875 1.359375 11.378906 6.019531 13.277344 12.167969l4.082031 13.460937c3.304688 10.8125 4.753906 22.042969 4.304688 33.355469l-1.78125 45.621094c-.136719 3.5625-2.574219 6.617187-6.015626 7.546875-.703124.1875-1.414062.277344-2.117187.277344zm-15.484375-96.539063c-.695312 0-1.328125.484375-1.480469 1.195313-4.519531 20.925781-1.019531 42.378906 9.851563 60.707031l.757812-19.445313c.375-9.488281-.84375-18.898437-3.617187-27.980468l-4.078125-13.441407c-.148438-.492187-.582032-.886719-1.117188-1.003906-.109375-.023437-.214844-.03125-.316406-.03125zm0 0" fill="#ff9900"/><path d="m175.28125 223.886719c-.792969 0-1.601562-.117188-2.390625-.359375-3.402344-1.046875-5.730469-4.183594-5.75-7.746094l-.121094-23.5625c-.105469-26.574219 10.054688-51.664062 28.621094-70.667969 3.324219-3.402343 7.769531-5.304687 12.523437-5.363281 4.742188.160156 9.242188 1.742188 12.640626 5.066406 4.609374 4.5 6.429687 11.160156 4.746093 17.386719l-3.671875 13.558594c-2.960937 10.933593-7.710937 21.210937-14.117187 30.550781l-25.765625 37.597656c-1.542969 2.253906-4.078125 3.539063-6.714844 3.539063zm33.09375-91.347657c-.414062 0-.832031.132813-1.085938.390626-14.960937 15.316406-23.410156 35.347656-23.957031 56.660156l11-16.046875c5.367188-7.828125 9.34375-16.441407 11.828125-25.601563l3.667969-13.554687c.144531-.53125-.007813-1.097657-.402344-1.480469-.25-.242188-.652343-.367188-1.050781-.367188zm0 0" fill="#ff9900"/><path d="m172.851562 222.792969c-1.050781 0-2.121093-.207031-3.140624-.632813l-21.769532-9.117187c-24.503906-10.257813-43.648437-29.398438-53.90625-53.898438-1.839844-4.390625-1.855468-9.234375-.046875-13.636719 1.8125-4.402343 5.222657-7.832031 9.613281-9.664062 5.933594-2.488281 12.765626-1.554688 17.839844 2.414062l11.050782 8.671876c8.914062 6.980468 16.535156 15.359374 22.652343 24.902343l24.570313 38.429688c1.921875 3.003906 1.667968 6.898437-.628906 9.628906-1.582032 1.878906-3.878907 2.902344-6.234376 2.902344zm-62.390624-72.039063c-.199219 0-.398438.039063-.585938.117188-.660156.273437-1.09375 1.328125-.816406 1.988281 8.265625 19.746094 23.429687 35.347656 42.859375 44.152344l-10.488281-16.402344c-5.121094-7.984375-11.507813-15.007813-18.984376-20.863281l-11.050781-8.675782c-.269531-.207031-.597656-.316406-.933593-.316406zm0 0" fill="#ff9900"/><path d="m140.214844 229.457031c-24.816406 0-48.46875-9.035156-67.054688-25.703125-7.304687-6.542968-7.925781-17.816406-1.386718-25.128906 4.316406-4.816406 10.882812-6.925781 17.207031-5.488281l13.691406 3.09375c11.039063 2.492187 21.511719 6.804687 31.125 12.808593l38.683594 24.179688c3.019531 1.886719 4.464843 5.523438 3.5625 8.96875-.90625 3.449219-3.941407 5.910156-7.503907 6.070312l-23.613281 1.089844c-1.574219.074219-3.144531.109375-4.710937.109375zm-55.175782-40.476562c-.429687 0-.84375.179687-1.132812.503906-.550781.617187-.5 1.578125.125 2.140625 15.9375 14.296875 36.355469 21.824219 57.621094 21.535156l-16.488282-10.308594c-8.054687-5.035156-16.828124-8.644531-26.082031-10.734374l-13.699219-3.097657c-.113281-.027343-.226562-.039062-.34375-.039062zm0 0" fill="#ff9900"/><path d="m320.09375 325.71875c-1.226562 0-2.464844-.277344-3.632812-.859375-9.480469-4.738281-20.113282-7.253906-30.671876-6.878906l-3.671874.078125c-2.285157-.015625-4.675782-.953125-6.269532-2.734375l-24.171875-27.234375c-2.980469-3.363282-2.679687-8.507813.683594-11.496094 3.347656-2.984375 8.5-2.6875 11.5.683594l21.667969 24.417968c13.113281-.371093 26.40625 2.6875 38.214844 8.597657 4.023437 2.011719 5.65625 6.902343 3.644531 10.925781-1.433594 2.851562-4.304688 4.5-7.292969 4.5zm0 0" fill="#ff9900"/><path d="m132.828125 261.746094c-2.632813 0-5.21875-1.277344-6.785156-3.632813-2.492188-3.742187-1.480469-8.796875 2.257812-11.289062 16.050781-10.695313 35.679688-14.730469 54.5625-11.328125 3.363281-13.832032 13.601563-25.265625 27.558594-29.914063l1.226563-.414062c4.269531-1.4375 8.882812.863281 10.316406 5.121093 1.433594 4.261719-.859375 8.878907-5.121094 10.3125l-1.253906.421876c-10.550782 3.519531-17.628906 13.332031-17.628906 24.433593 0 2.507813-1.15625 4.871094-3.132813 6.414063-1.972656 1.550781-4.554687 2.097656-6.984375 1.484375l-4.070312-1.019531c-15.871094-3.960938-32.800782-1.042969-46.4375 8.035156-1.386719.929687-2.957032 1.375-4.507813 1.375zm0 0" fill="#ff9900"/><path d="m24.96875 441.417969c-.976562 0-1.957031-.175781-2.898438-.535157-3.191406-1.214843-5.289062-4.300781-5.246093-7.710937l.636719-49.253906c.023437-1.765625.617187-3.46875 1.691406-4.867188l5.976562-7.761719-17.214844-1.542968c-3.167968-.285156-5.878906-2.386719-6.945312-5.382813-1.0664062-3-.285156-6.339843 1.992188-8.558593l24.949218-24.316407c.902344-.882812 2-1.542969 3.207032-1.929687l20.800781-6.632813-12.558594-8.222656c-2.628906-1.726563-4.035156-4.800781-3.605469-7.910156.417969-3.117188 2.597656-5.710938 5.59375-6.664063l37.105469-11.832031c1.242187-.398437 2.5625-.488281 3.84375-.261719l34.285156 5.867188-3.882812-14.996094c-.832031-3.222656.371093-6.625 3.050781-8.597656 2.683594-1.972656 6.289062-2.105469 9.109375-.375l61.097656 37.734375c3.246094 2.003906 4.667969 5.996093 3.410157 9.597656l-17.910157 51.496094c-.410156 1.191406-1.101562 2.273437-2.003906 3.15625l-24.941406 24.316406c-1.875 1.820313-4.523438 2.625-7.089844 2.195313-2.578125-.453126-4.785156-2.121094-5.921875-4.476563l-4.21875-8.714844-19.410156 22.34375c-.722656.835938-1.605469 1.511719-2.597656 1.996094l-29.742188 14.394531c-2.957031 1.414063-6.503906.9375-8.960938-1.25-2.457031-2.1875-3.355468-5.644531-2.273437-8.753906l3.773437-10.863281-10.550781 5.105469-26.402343 30.402343c-1.582032 1.816407-3.839844 2.804688-6.148438 2.804688zm8.742188-54.582031-.3125 24.316406 12.921874-14.878906c.722657-.832032 1.605469-1.511719 2.597657-1.996094l29.75-14.398438c2.957031-1.425781 6.496093-.9375 8.960937 1.246094 2.457032 2.1875 3.355469 5.648438 2.273438 8.753906l-3.773438 10.871094 10.542969-5.105469 26.410156-30.40625c1.792969-2.070312 4.53125-3.09375 7.21875-2.734375 2.714844.355469 5.066407 2.058594 6.253907 4.523438l4.675781 9.660156 15.476562-15.09375 15.132813-43.503906-38.292969-23.65625 1.960937 7.570312c.691407 2.679688-.023437 5.519532-1.890624 7.554688-1.871094 2.035156-4.65625 2.996094-7.367188 2.511718l-44.742188-7.65625-18.910156 6.035157 12.554688 8.210937c2.628906 1.726563 4.03125 4.804688 3.605468 7.914063-.421874 3.117187-2.601562 5.699219-5.589843 6.664062l-35.269531 11.25-10.890626 10.617188 14.347657 1.289062c2.964843.269531 5.539062 2.121094 6.734375 4.84375 1.191406 2.726563.804687 5.882813-1.007813 8.238281zm0 0" fill="#ff9900"/><path d="m443.960938 493.972656c-2.21875 0-4.398438-.910156-5.964844-2.601562l-28.699219-30.910156-12.078125-5.359376 4.636719 12.046876c1.183593 3.070312.40625 6.550781-1.980469 8.828124-2.386719 2.265626-5.910156 2.863282-8.914062 1.542969l-31.585938-14.011719c-1.007812-.445312-1.914062-1.097656-2.671875-1.898437l-21.421875-23.085937-4.332031 9.773437c-1.058594 2.394531-3.207031 4.136719-5.773438 4.667969-2.578125.558594-5.226562-.199219-7.160156-1.949219l-26.90625-24.546875c-.929687-.859375-1.65625-1.90625-2.109375-3.09375l-20.5-53.179688c-1.375-3.5625-.085938-7.59375 3.085938-9.710937l62.535156-41.546875c2.773437-1.835938 6.382812-1.8125 9.121094.070312 2.742187 1.886719 4.0625 5.25 3.332031 8.496094l-3.667969 16.355469 36.1875-7.433594c1.28125-.261719 2.609375-.214843 3.859375.140625l39.171875 11.085938c3.019531.851562 5.277344 3.371094 5.8125 6.464844.523438 3.101562-.78125 6.226562-3.347656 8.03125l-13.472656 9.464843 22.71875 6.421875c1.21875.34375 2.332031.964844 3.269531 1.816406l26.910156 24.539063c2.34375 2.144531 3.234375 5.460937 2.273437 8.492187-.972656 3.027344-3.609374 5.214844-6.761718 5.605469l-18.597656 2.296875 6.941406 8.414063c1.121094 1.359375 1.773437 3.046875 1.855468 4.808593l2.367188 51.449219c.160156 3.410157-1.835938 6.5625-4.984375 7.878907-1.019531.429687-2.082031.636718-3.148437.636718zm-61.414063-62.425781c1.113281 0 2.242187.234375 3.300781.703125l31.578125 14c1.007813.445312 1.914063 1.097656 2.664063 1.902344l14.710937 15.847656-1.21875-26.535156-14.65625-17.757813c-1.890625-2.296875-2.382812-5.4375-1.277343-8.195312 1.097656-2.761719 3.609374-4.699219 6.558593-5.066407l15.753907-1.949218-12.40625-11.3125-37.332032-10.5625c-3.023437-.847656-5.28125-3.371094-5.804687-6.464844-.535157-3.101562.769531-6.226562 3.339843-8.03125l13.46875-9.46875-20.800781-5.882812-46.574219 9.570312c-2.679687.542969-5.511718-.292969-7.445312-2.265625-1.9375-1.96875-2.742188-4.792969-2.136719-7.488281l1.988281-8.875-40.214843 26.71875 17.460937 45.292968 17.136719 15.640626 4.765625-10.734376c1.109375-2.503906 3.402344-4.277343 6.097656-4.730468 2.742188-.445313 5.445313.484375 7.316406 2.488281l28.679688 30.910156 12.089844 5.359375-4.636719-12.039062c-1.183594-3.070313-.40625-6.550782 1.980469-8.828125 1.542968-1.472657 3.5625-2.246094 5.613281-2.246094zm0 0" fill="#ff9900"/><path d="m230.53125 488.570312c-4.496094 0-8.144531-3.640624-8.144531-8.140624v-72.785157c0-37.570312-20.265625-72.496093-52.894531-91.144531-3.902344-2.234375-5.261719-7.203125-3.03125-11.109375 2.238281-3.902344 7.214843-5.261719 11.109374-3.027344 37.6875 21.535157 61.101563 61.878907 61.101563 105.28125v72.785157c.003906 4.5-3.644531 8.140624-8.140625 8.140624zm0 0" fill="#ff9900"/><path d="m230.53125 513c-4.496094 0-8.144531-3.640625-8.144531-8.144531v-63.351563c-.003907-50.351562 18.042969-99.136718 50.820312-137.367187 2.933594-3.425781 8.074219-3.808594 11.476563-.882813 3.417968 2.925782 3.816406 8.0625.882812 11.472656-30.242187 35.292969-46.894531 80.316407-46.890625 126.777344v63.351563c0 4.503906-3.648437 8.144531-8.144531 8.144531zm0 0" fill="#ff9900"/><path d="m230.53125 504.855469c-4.496094 0-8.144531-3.640625-8.144531-8.140625v-260.566406l16.328125-163.667969c.449218-4.46875 4.394531-7.730469 8.914062-7.289063 4.476563.449219 7.734375 4.4375 7.289063 8.914063l-16.285157 162.851562.042969 259.757813c0 4.5-3.648437 8.140625-8.144531 8.140625zm0 0" fill="#ff9900"/><path d="m328.246094 114.007812h-19.238282c-21.269531 0-41.277343-8.28125-56.324218-23.328124l-11.625-11.628907c-2.183594-2.183593-2.941406-5.40625-1.96875-8.335937.980468-2.925782 3.523437-5.046875 6.582031-5.484375l9.996094-1.425781c31.804687-4.511719 63.03125 10.328124 79.554687 37.871093 1.511719 2.515625 1.554688 5.648438.105469 8.199219s-4.148437 4.132812-7.082031 4.132812zm-63.871094-34.667968c11.953125 11.855468 27.792969 18.382812 44.632812 18.382812h2.617188c-12.398438-12.363281-29.351562-19.144531-47.25-18.382812zm0 0" fill="#ff9900"/><path d="m208.925781 89.625c-13.488281 0-26.816406-3.460938-38.894531-10.253906l-16.769531-9.417969c-2.558594-1.4375-4.148438-4.140625-4.15625-7.074219-.007813-2.933594 1.558593-5.644531 4.105469-7.101562 27.898437-15.914063 62.402343-13.589844 87.914062 5.945312l8.023438 6.136719c2.449218 1.875 3.625 4.972656 3.046874 8-.582031 3.027344-2.824218 5.46875-5.789062 6.304687l-15.832031 4.460938c-7.152344 2.007812-14.425781 3-21.648438 3zm-33.199219-25.730469 2.28125 1.28125c14.683594 8.253907 31.691407 10.328125 47.929688 5.835938-15.144531-9.347657-33.355469-11.828125-50.210938-7.117188zm0 0" fill="#ff9900"/><path d="m246.816406 81.4375c-1.238281 0-2.488281-.285156-3.640625-.859375-.953125-.476563-1.902343-.996094-2.820312-1.546875-19.800781-11.886719-26.238281-37.648438-14.363281-57.441406.175781-.289063.363281-.574219.574218-.839844l13.847656-17.628906c1.4375-1.832032 3.59375-2.957032 5.917969-3.0976565 2.3125-.1914065 4.597657.7304685 6.242188 2.3710935l8.144531 8.144531c.269531.269532.523438.5625.753906.871094 7.832032 10.441406 11.132813 23.300782 9.28125 36.222656-1.847656 12.917969-8.613281 24.347657-19.054687 32.175782-1.429688 1.074218-3.15625 1.628906-4.882813 1.628906zm-7.105468-51.054688c-3.320313 5.761719-4.257813 12.472657-2.632813 18.945313 1.382813 5.546875 4.507813 10.363281 8.921875 13.847656 4.640625-4.867187 7.664062-11.050781 8.632812-17.851562 1.203126-8.425781-.875-16.824219-5.859374-23.703125l-1.226563-1.21875zm0 0" fill="#ff9900"/><path d="m230.53125 453.621094c-4.496094 0-8.144531-3.640625-8.144531-8.140625v-75.089844c0-43.472656-13.535157-85.011719-39.148438-120.136719-2.648437-3.632812-1.855469-8.726562 1.78125-11.378906 3.632813-2.648438 8.726563-1.839844 11.378907 1.78125 27.65625 37.929688 42.273437 82.792969 42.273437 129.734375v21.277344c9.113281-13.582031 21.742187-24.855469 37.074219-32.523438.828125-.414062 1.71875-.683593 2.632812-.792969l2.035156-.253906c42.261719-5.265625 83.820313 11.101563 111.085938 43.839844 2.878906 3.449219 2.410156 8.585938-1.050781 11.464844-3.449219 2.878906-8.585938 2.410156-11.464844-1.050782-23.699219-28.441406-59.800781-42.660156-96.550781-38.097656l-.621094.082032c-26.640625 13.875-43.136719 41.015624-43.140625 71.144531.003906 4.5-3.644531 8.140625-8.140625 8.140625zm0 0" fill="#ff9900"/><path d="m67.671875 366.429688c-1.785156 0-3.582031-.578126-5.082031-1.78125-3.511719-2.8125-4.082032-7.933594-1.269532-11.449219 22.25-27.808594 55.433594-43.757813 91.039063-43.769531h29.316406c4.496094 0 8.144531 3.644531 8.144531 8.144531s-3.648437 8.144531-8.144531 8.144531h-29.316406c-30.632813.007812-59.179687 13.730469-78.324219 37.660156-1.605468 2.011719-3.976562 3.050782-6.363281 3.050782zm0 0" fill="#ff9900"/></g><g transform="matrix(0.12645241618156433 0.03448702022433281 -0.03448702022433281 0.12645241618156433 265.02105712890625 288.8327941894531)" id="L1_6"><path d="m333.541 327.74c-5.522 0-10-4.477-10-10v-9.191c0-5.523 4.478-10 10-10s10 4.477 10 10v9.191c0 5.523-4.478 10-10 10z" fill="#5c3f36"/><path d="m423.213 292.2c-5.522 0-10-4.477-10-10v-9.192c0-5.523 4.478-10 10-10s10 4.477 10 10v9.192c0 5.523-4.478 10-10 10z" fill="#5c3f36"/><path d="m409.937 336.163c-5.522 0-10-4.477-10-10v-9.191c0-5.523 4.478-10 10-10s10 4.477 10 10v9.191c0 5.523-4.478 10-10 10z" fill="#5c3f36"/><path d="m374.702 313.953c-5.522 0-10-4.477-10-10v-9.191c0-5.523 4.478-10 10-10s10 4.477 10 10v9.191c0 5.522-4.477 10-10 10z" fill="#5c3f36"/><path d="m411.849 173.857-18.184-18.184c-2.882-2.881-7.082-3.636-10.656-2.266l-44.187-87.481c-8.933-17.686-25.276-29.626-44.841-32.76-19.562-3.133-38.818 3.104-52.829 17.114l-42.174 42.174c-14.01 14.01-20.248 33.266-17.113 52.83 3.134 19.563 15.074 35.907 32.759 44.839l87.481 44.187c-1.37 3.574-.614 7.775 2.267 10.656l18.184 18.184c7.085 7.084 16.39 10.626 25.695 10.626s18.611-3.542 25.696-10.626l37.901-37.901c6.863-6.863 10.644-15.989 10.644-25.695s-3.78-18.833-10.643-25.697zm-108.78-33.628-.741-.742c-4.513-4.513-6.625-11.046-5.947-18.396.741-8.043 4.65-15.973 11.007-22.329 5.734-5.733 12.99-9.532 20.196-10.726l40.129 79.448-51.531 51.531-18.574-9.382c.134-.132.267-.264.4-.396 20.42-20.422 22.69-51.38 5.061-69.008zm-101.456 1.891c-2.107-13.155 2.087-26.104 11.508-35.524l42.174-42.174c7.822-7.823 18.076-12.042 28.862-12.042 2.203 0 4.43.176 6.661.534 11.144 1.785 20.734 7.82 27.058 16.852-8.995 2.663-17.525 7.748-24.631 14.853-9.651 9.651-15.61 21.951-16.779 34.635-1.233 13.375 2.929 25.584 11.718 34.373l.741.742c9.833 9.833 7.563 28.102-5.059 40.724-1.769 1.768-3.664 3.351-5.669 4.735l-54.556-27.556c-11.892-6.007-19.92-16.997-22.028-30.152zm196.093 68.986-37.901 37.901c-6.37 6.37-16.734 6.372-23.106 0l-11.112-11.112 61.008-61.008 11.111 11.113c3.086 3.086 4.786 7.189 4.786 11.553s-1.7 8.467-4.786 11.553z" fill="#5c3f36"/><path d="m355.56 479.627c-4.182 0-7.995-2.709-9.405-6.636-1.391-3.874-.2-8.32 2.936-10.987 3.271-2.781 8.098-3.142 11.745-.873 3.497 2.175 5.339 6.404 4.534 10.446-.919 4.614-5.103 8.05-9.81 8.05z" fill="#5c3f36"/><path d="m502 358.575h-332.162v-14.463c0-5.523-4.478-10-10-10h-124.025c-19.748 0-35.813 16.065-35.813 35.813v.342c0 19.748 16.065 35.813 35.813 35.813h124.024c5.522 0 10-4.477 10-10v-17.505h18.921v29.953c0 38.95 31.479 70.685 70.334 71.094.096.002.191.004.287.004h50.794c5.522 0 10-4.477 10-10s-4.478-10-10-10h-50.317c-28.176 0-51.098-22.922-51.098-51.098v-29.953h283.242v29.953c0 28.175-22.922 51.098-51.098 51.098h-40.316c-5.522 0-10 4.477-10 10s4.478 10 10 10h40.793c.096 0 .191-.001.287-.004 38.855-.41 70.334-32.145 70.334-71.095v-39.953c0-5.522-4.478-9.999-10-9.999zm-482 11.691v-.342c0-8.719 7.094-15.813 15.813-15.813h60.548v31.968h-60.548c-8.719.001-15.813-7.093-15.813-15.813zm129.838 15.814h-33.477v-31.968h33.477z" fill="#5c3f36"/></g><g transform="matrix(0.1128937229514122 -0.02605239860713482 0.02605239860713482 0.1128937229514122 271.42974853515625 154.76858520507812)" id="L1_7"><path d="M207.452,88.158L207.452,88.158v-16.95h32.057v-55.64C239.51,6.984,232.526,0,223.942,0h-56.101v15.107h56.101     c0.237,0,0.46,0.224,0.46,0.46v40.533H47.164V15.568c0-0.237,0.225-0.46,0.461-0.46h96.172V0H47.625     c-8.584,0-15.569,6.984-15.569,15.568v55.64h32.058v16.95H52.511l-28.468,28.468v195.475H39.15V122.884l19.618-19.618h20.454     V71.208h113.124v32.058H212.8l19.618,19.618v354.391L212.8,496.894H58.768L39.15,477.275V336.144H24.042v147.389l28.468,28.468     h166.546l28.468-28.468V116.626l-28.468-28.468H207.452z" fill="#f57a00"/><rect x="95px" y="88px" width="80px" height="15px" fill="#f57a00"/><rect x="128px" y="135px" width="15px" height="328px" fill="#f57a00"/><rect x="72px" y="199px" width="15px" height="264px" fill="#f57a00"/><rect x="72px" y="135px" width="15px" height="16px" fill="#f57a00"/><rect x="72px" y="167px" width="15px" height="16px" fill="#f57a00"/><rect x="184px" y="135px" width="15px" height="264px" fill="#f57a00"/><rect x="184px" y="448px" width="15px" height="16px" fill="#f57a00"/><rect x="184px" y="416px" width="15px" height="16px" fill="#f57a00"/><path d="M459.489,88.158h-11.603v-16.95h32.058v-55.64C479.942,6.984,472.959,0,464.374,0h-40.073v15.107h40.073     c0.237,0,0.46,0.224,0.46,0.46v40.533H287.596V15.568c0-0.237,0.225-0.46,0.461-0.46h112.201V0H288.058     c-8.584,0-15.569,6.984-15.569,15.568v55.64h32.058v16.95h-11.603l-28.468,28.468v366.906l28.468,28.468h75.259v-15.107h-69.001     l-19.618-19.618V122.884l19.618-19.618h20.454V71.208h113.123v32.058h20.454l19.618,19.618v354.391l-19.618,19.618h-60.986     v15.107h67.244l28.469-28.468V116.626L459.489,88.158z" fill="#f57a00"/><rect x="336px" y="88px" width="80px" height="15px" fill="#f57a00"/><rect x="368px" y="135px" width="15px" height="328px" fill="#f57a00"/><rect x="312px" y="199px" width="15px" height="264px" fill="#f57a00"/><rect x="312px" y="135px" width="15px" height="16px" fill="#f57a00"/><rect x="312px" y="167px" width="15px" height="16px" fill="#f57a00"/><rect x="424px" y="135px" width="15px" height="264px" fill="#f57a00"/><rect x="424px" y="448px" width="15px" height="16px" fill="#f57a00"/><rect x="424px" y="416px" width="15px" height="16px" fill="#f57a00"/></g></defs><g fi:class="KUsePattern" opacity="0.8"><pattern id="pattern_L1_3" width="350" height="350" patternUnits="userSpaceOnUse"><use xlink:href="#L1_3" x="-350" y="-350"/><use xlink:href="#L1_3" x="0" y="-350"/><use xlink:href="#L1_3" x="350" y="-350"/><use xlink:href="#L1_3" x="-350" y="0"/><use xlink:href="#L1_3" x="0" y="0"/><use xlink:href="#L1_3" x="350" y="0"/><use xlink:href="#L1_3" x="-350" y="350"/><use xlink:href="#L1_3" x="0" y="350"/><use xlink:href="#L1_3" x="350" y="350"/></pattern><rect x="0" y="0" width="100%" height="100%" fill="url(#pattern_L1_3)"/></g><g fi:class="KUsePattern" opacity="0.5"><pattern id="pattern_L1_4" width="350" height="350" patternUnits="userSpaceOnUse"><use xlink:href="#L1_4" x="-350" y="-350"/><use xlink:href="#L1_4" x="0" y="-350"/><use xlink:href="#L1_4" x="350" y="-350"/><use xlink:href="#L1_4" x="-350" y="0"/><use xlink:href="#L1_4" x="0" y="0"/><use xlink:href="#L1_4" x="350" y="0"/><use xlink:href="#L1_4" x="-350" y="350"/><use xlink:href="#L1_4" x="0" y="350"/><use xlink:href="#L1_4" x="350" y="350"/></pattern><rect x="0" y="0" width="100%" height="100%" fill="url(#pattern_L1_4)"/></g><g fi:class="KUsePattern" opacity="0.5"><pattern id="pattern_L1_5" width="350" height="350" patternUnits="userSpaceOnUse"><use xlink:href="#L1_5" x="-350" y="-350"/><use xlink:href="#L1_5" x="0" y="-350"/><use xlink:href="#L1_5" x="350" y="-350"/><use xlink:href="#L1_5" x="-350" y="0"/><use xlink:href="#L1_5" x="0" y="0"/><use xlink:href="#L1_5" x="350" y="0"/><use xlink:href="#L1_5" x="-350" y="350"/><use xlink:href="#L1_5" x="0" y="350"/><use xlink:href="#L1_5" x="350" y="350"/></pattern><rect x="0" y="0" width="100%" height="100%" fill="url(#pattern_L1_5)"/></g><g fi:class="KUsePattern" opacity="0.5"><pattern id="pattern_L1_6" width="350" height="350" patternUnits="userSpaceOnUse"><use xlink:href="#L1_6" x="-350" y="-350"/><use xlink:href="#L1_6" x="0" y="-350"/><use xlink:href="#L1_6" x="350" y="-350"/><use xlink:href="#L1_6" x="-350" y="0"/><use xlink:href="#L1_6" x="0" y="0"/><use xlink:href="#L1_6" x="350" y="0"/><use xlink:href="#L1_6" x="-350" y="350"/><use xlink:href="#L1_6" x="0" y="350"/><use xlink:href="#L1_6" x="350" y="350"/></pattern><rect x="0" y="0" width="100%" height="100%" fill="url(#pattern_L1_6)"/></g><g fi:class="KUsePattern" opacity="0.75"><pattern id="pattern_L1_7" width="350" height="350" patternUnits="userSpaceOnUse"><use xlink:href="#L1_7" x="-350" y="-350"/><use xlink:href="#L1_7" x="0" y="-350"/><use xlink:href="#L1_7" x="350" y="-350"/><use xlink:href="#L1_7" x="-350" y="0"/><use xlink:href="#L1_7" x="0" y="0"/><use xlink:href="#L1_7" x="350" y="0"/><use xlink:href="#L1_7" x="-350" y="350"/><use xlink:href="#L1_7" x="0" y="350"/><use xlink:href="#L1_7" x="350" y="350"/></pattern><rect x="0" y="0" width="100%" height="100%" fill="url(#pattern_L1_7)"/></g></svg>